<svg width="375" height="318" viewBox="0 0 375 318" fill="none" xmlns="http://www.w3.org/2000/svg">
<path d="M91.3876 84.6175C45.8455 97.4353 10.4867 135.311 0 151.5V322.5C0 330.511 368.511 321.5 377.5 321.5C384.691 321.5 377 105 377 0C366.014 8.51182 320.5 39.5 273.5 56C227.308 72.2162 148.315 68.5953 91.3876 84.6175Z" fill="#EA745D"/>
<path d="M157.5 105.944C80.3 107.944 19.1667 156.167 0 179V341.444C124.333 341.444 374.9 340.744 382.5 337.944C390.1 335.144 404.167 236.132 401 186.465C413.5 122.799 409.7 2.14362 368.5 32.9436C317 71.4436 254 103.444 157.5 105.944Z" fill="#B3CBB5"/>
<path d="M-0.5 200C18.8333 180.333 88.9 135.8 142.5 135C209.5 134 301.5 117 369.5 53C373.618 49.1247 377.292 45.6603 380.559 42.5751L380.5 41.5C399.448 23.7841 420.447 4.90055 380.559 42.5751L388.5 188L376 330.5L-5.5 326.5L-9 261.5L-0.5 200Z" fill="#558D5B"/>
</svg>
