<svg width="21" height="19" viewBox="0 0 21 19" fill="none" xmlns="http://www.w3.org/2000/svg">
<path d="M19.3832 0.00163246C19.0988 0.014008 18.8338 0.0957137 18.6005 0.188717C18.382 0.275412 17.5471 0.628596 16.2321 1.18482C14.9159 1.74152 13.1732 2.47951 11.3141 3.26803C7.596 4.84507 3.41586 6.62028 1.27478 7.52884C1.19427 7.56299 0.913344 7.65151 0.615176 7.8811C0.317008 8.11069 0 8.58643 0 9.11653C0 9.54399 0.20654 9.96865 0.466509 10.2222C0.726477 10.4757 1.00156 10.601 1.23719 10.6958C2.09213 11.0399 4.74367 12.1101 5.24438 12.3121C5.42059 12.8446 6.38032 15.7402 6.60289 16.4499C6.74961 16.9182 6.88927 17.2116 7.07111 17.4443C7.16203 17.5607 7.26771 17.6627 7.39578 17.7427C7.44697 17.7746 7.5031 17.7992 7.55983 17.8219L7.56325 17.8236C7.57632 17.8287 7.58759 17.8375 7.60084 17.8421C7.62585 17.8507 7.64258 17.8518 7.67603 17.859C7.8093 17.9014 7.94385 17.9281 8.06393 17.9281C8.5759 17.9281 8.88929 17.65 8.88929 17.65L8.90809 17.6365L11.5414 15.3898L14.7352 18.3696C14.7801 18.4324 15.1995 19 16.1244 19C16.6736 19 17.1093 18.7282 17.389 18.4387C17.6687 18.1493 17.8429 17.8452 17.917 17.4629V17.4612C17.9863 17.0999 20.9297 2.19609 20.9297 2.19609L20.9245 2.21631C21.0107 1.8284 21.0333 1.46715 20.9382 1.11066C20.8431 0.754165 20.5926 0.412841 20.282 0.229168C19.9714 0.0455355 19.6676 -0.0107432 19.3832 0.00163246ZM19.2191 1.80506C19.2149 1.83025 19.2223 1.81758 19.2157 1.8472L19.214 1.85731L19.2123 1.86742C19.2123 1.86742 16.3054 16.5806 16.1979 17.141C16.2058 17.0986 16.1698 17.1828 16.133 17.2337C16.0809 17.1982 15.9741 17.1528 15.9741 17.1528L15.957 17.1342L11.5944 13.0639L8.50993 15.6932L9.42757 12.0694C9.42757 12.0694 15.1637 6.21291 15.5093 5.87205C15.7875 5.59935 15.8459 5.5043 15.8459 5.41023C15.8459 5.28424 15.7793 5.19281 15.6306 5.19281C15.4967 5.19281 15.3167 5.32118 15.2205 5.38158C13.9666 6.16992 8.46204 9.33423 5.99455 10.7497C5.60242 10.5915 2.87818 9.49157 1.95489 9.11991C1.96188 9.11689 1.95958 9.11796 1.96685 9.11485C4.10849 8.20604 8.28689 6.43086 12.0045 4.85404C13.8633 4.06563 15.6074 3.32708 16.9225 2.77082C18.2173 2.22313 19.117 1.8462 19.2191 1.80506Z" fill="white"/>
</svg>
