<svg width="102" height="115" viewBox="0 0 102 115" fill="none" xmlns="http://www.w3.org/2000/svg">
<path fill-rule="evenodd" clip-rule="evenodd" d="M57.7118 16.7533C58.3625 16.6837 58.4555 17.5663 58.5443 17.9687C58.795 17.8104 59.0182 17.9617 59.075 17.5921C59.8684 18.4234 60.5037 19.3775 61.2082 20.2805C61.8839 21.1469 62.9401 21.836 63.5246 22.7468C64.0207 23.5201 63.2022 24.6941 63.101 25.5187C62.9869 26.4479 63.2294 27.5114 63.8641 28.2199C64.161 28.5512 64.524 28.7813 64.9628 28.8703C65.3992 28.9588 65.8142 28.7029 66.1984 28.7573C66.5172 28.8025 66.5312 29.0133 66.6424 29.3264C66.7948 29.756 66.9891 30.1615 67.349 30.4633C67.7513 30.8003 68.1833 30.8976 68.4902 31.3505C68.758 31.7456 68.9098 32.1283 69.3251 32.4027C69.8793 32.7687 70.7683 32.8793 70.7083 33.7341C70.8035 33.6584 70.8988 33.5828 70.9941 33.507C71.215 34.2169 71.5189 34.9042 71.8435 35.5717C71.9956 35.8845 72.0737 36.0507 72.0659 36.3987C72.0606 36.628 71.9349 36.8014 72.0708 37.0233C72.2882 37.3785 72.8695 37.3303 73.135 37.6175C73.4071 37.912 73.1247 38.3115 73.4391 38.5682C73.3066 38.6089 72.9396 38.9053 73.0776 39.0854C73.2761 39.3444 73.2911 38.9897 73.4302 39.0324C73.7498 39.1302 73.6824 39.529 73.9316 39.6375C73.9829 39.6598 73.9789 39.4208 73.9762 39.3592L73.9759 39.357L74.1684 39.7325C75.7884 42.8677 77.6871 45.8544 79.2134 49.0349L79.3947 49.4175C82.2688 55.5615 85.6857 61.5437 89.4644 67.1791C90.3557 68.5084 91.3338 69.8289 92.158 71.1963C92.9861 72.5704 94.0182 73.7883 94.9342 75.1023C95.8764 76.454 96.7389 77.8609 97.6886 79.2065C98.4462 80.2797 99.372 81.4219 99.3598 82.8057C99.354 83.4207 99.2647 84.0999 98.6719 84.4304C98.6576 84.1768 98.2739 84.4573 98.1824 84.5195C97.7865 84.7889 98.0018 84.7591 97.575 84.665C96.8823 84.512 96.2908 84.719 95.65 84.3253C94.2909 83.4902 92.9515 82.6317 91.5679 81.8349C88.5776 80.1128 85.6171 78.3494 82.8431 76.2913C77.9938 72.6933 72.7252 69.4692 68.2687 65.3765C63.8155 61.2869 59.1422 57.2295 53.8579 54.2385C53.5036 54.038 52.4884 53.7371 52.5819 53.2589C52.664 52.8398 53.5771 52.2523 53.8973 51.9621C55.0087 50.955 56.1662 50.002 57.2383 48.9517C59.2174 47.0128 61.1819 44.873 62.7694 42.5982C63.5416 41.4914 63.9357 40.2606 64.3866 39.0023C64.7845 37.8916 65.1523 36.5243 64.5065 35.4254C64.2074 34.9164 63.7947 34.7099 63.2173 34.7485C62.7394 34.7805 62.7608 34.8783 62.5714 34.3714C62.3675 33.8258 62.2016 33.1926 61.6546 32.8767C61.0879 32.5494 60.7019 32.8984 60.243 33.2261C59.715 32.4637 59.0674 31.1446 58.003 31.0716C56.8917 30.9955 56.2605 32.3684 55.8767 33.1942C54.7419 35.6359 53.2654 37.9169 51.6775 40.0913C49.9563 42.4483 48.1966 44.846 46.3001 47.0654C45.8986 47.5353 45.4427 48.221 44.877 48.506C44.2967 48.7986 43.8151 48.5238 43.3246 48.1872C42.1685 47.3943 41.0443 46.58 39.8408 45.854C38.5077 45.0498 37.1372 44.3133 35.7776 43.5557C35.1778 43.2215 34.6087 42.819 33.9906 42.5188C33.4148 42.2391 32.7876 42.1006 32.1981 41.8558C34.3628 41.2104 36.643 42.0559 38.6919 42.7265C39.7554 43.0745 40.8675 43.4369 42.0028 43.3433C42.9848 43.2625 43.8759 42.7366 44.6527 42.1624C46.0568 41.1244 46.167 39.5652 45.7091 37.9893C45.1823 36.1754 44.3765 34.431 43.7676 32.6419C43.4907 31.8281 43.3 30.9638 43.9303 30.2607C44.4944 29.6315 45.2243 29.5541 45.9942 29.8018C47.8609 30.4025 49.5168 30.9664 51.5178 30.9094C53.0823 30.8649 55.0722 30.4209 56.1261 29.1495C56.7039 28.4526 56.7259 27.4944 56.7282 26.63C56.7311 25.6056 56.6665 24.5753 56.5231 23.5612C56.2673 21.7516 55.6036 19.9397 56.4359 18.1827C56.631 17.7706 57.1743 16.8108 57.7118 16.7533ZM73.9758 39.3511L73.9759 39.357L73.9754 39.3555C73.975 39.3424 73.9753 39.3423 73.9758 39.3511ZM9.22681 30.8571C9.71592 30.1805 11.0544 28.6048 12.0763 28.9496C12.2548 29.0098 12.3837 29.1878 12.5014 29.3202C12.5847 29.4285 12.6674 29.5373 12.7495 29.6466C12.8004 29.7903 12.8919 29.8327 13.0241 29.7738C13.3824 30.2701 13.8882 30.6449 14.0942 31.2545C14.2982 31.8585 14.8459 32.4442 15.1689 32.9982C15.4188 33.4267 15.9821 34.5706 15.939 35.1065V36.474C15.8881 37.0056 14.8945 37.9565 14.5451 38.3161C13.6774 39.2092 12.7349 39.3235 11.4491 39.2095C10.3598 39.1129 8.94902 38.7498 8.21162 37.884C7.50394 37.0533 7.51397 35.7658 7.61869 34.7427C7.76494 33.3141 8.39165 32.0126 9.22681 30.8571ZM12.5784 31.0839C12.379 30.7134 11.9426 30.6219 11.5592 30.6658C11.176 30.7097 10.7362 30.7419 10.3848 30.9128C10.0603 31.0708 9.89605 31.3475 9.49158 31.2545C9.65174 31.5306 9.36471 31.6901 9.32338 31.9389C9.27022 32.2585 9.37325 32.545 9.58438 32.7875C10.0214 33.2898 10.6743 33.28 11.2817 33.329C11.7953 33.3703 12.427 33.4554 12.7287 33.9366C12.9233 34.2469 12.7468 34.4705 12.838 34.7821C12.905 35.0117 13.1856 35.1437 13.3083 35.3408C13.7193 34.7358 13.7049 33.4398 13.4543 32.7928C13.3358 32.4873 13.1119 32.0894 12.9344 31.821C12.8764 31.7331 12.7393 31.6283 12.7029 31.5557C12.6398 31.4304 12.6473 31.2118 12.5784 31.0839Z" fill="#EA745D"/>
<path fill-rule="evenodd" clip-rule="evenodd" d="M60.4928 111.779C61.2364 111.489 62.1531 111.624 62.9327 111.638C63.9115 111.656 64.893 111.73 65.8689 111.807C67.743 111.954 69.6077 111.892 71.4834 112.067C72.4146 112.154 73.3465 112.234 74.2785 112.314C75.0944 112.383 76.0419 112.599 76.8565 112.444C77.1928 112.379 78.1004 112.063 77.9323 111.57C77.8025 111.19 76.7806 110.956 76.4477 110.848C75.6646 110.593 74.8561 110.411 74.0644 110.184C73.6578 110.067 73.2528 109.942 72.8248 109.983C72.4614 110.017 72.0787 110.288 71.7105 110.257C71.1661 110.211 70.8855 109.527 70.4861 109.226C69.8504 108.745 69.3789 109.002 68.8915 109.531C68.5311 109.922 68.1878 110.514 67.5964 110.549C66.8441 110.594 66.6977 109.949 67.0297 109.402C67.3355 108.898 68.168 108.381 68.2127 107.753C68.241 107.356 67.606 106.294 67.2406 106.143C66.626 105.889 65.7574 106.562 65.2018 106.768C64.2315 107.128 63.241 107.447 62.2586 107.773C61.5866 107.995 60.5895 108.015 60.4626 108.802C60.3038 109.788 60.4973 110.789 60.4928 111.779ZM22.0364 96.6241C22.2318 96.1912 22.437 95.945 22.0464 95.5433C21.828 95.3188 21.52 95.2083 21.305 94.9752C20.9821 94.6249 20.4759 93.6676 21.1683 93.4265C21.83 93.196 22.3875 94.1171 22.92 94.3194C23.5959 94.5762 24.0147 94.1456 24.1113 93.4998C24.2356 92.67 24.099 91.8029 24.198 90.9628C24.2949 90.1391 24.5826 89.4552 24.8034 88.6666C24.953 88.1319 25.1361 87.5936 24.4572 87.4751C23.8346 87.3663 23.1123 87.625 22.4809 87.6597C21.4961 87.7137 20.4996 87.7635 19.523 87.9111C18.4327 88.0759 18.4525 89.1909 18.1787 90.1024C17.5151 92.3121 16.625 94.4804 16.2106 96.7585C16.0319 97.7408 16.5056 98.4136 17.0569 99.186C17.7472 100.153 18.4653 101.118 19.247 102.014C19.769 102.612 20.3572 103.169 21.1174 103.444C21.9785 103.756 22.3076 103.41 22.1089 102.561C21.8466 101.44 21.4508 100.358 21.4974 99.1912C21.5145 98.7663 21.6381 98.3097 21.3317 97.9541C21.1192 97.7075 20.7551 97.6243 20.4778 97.4743C20.0206 97.2266 19.3123 96.4299 20.2031 96.2585C20.808 96.142 21.4508 96.5488 22.0364 96.6241ZM42.6056 52.735C43.1492 53.3418 43.7399 53.9225 44.2553 54.5529C44.5508 54.9146 44.7601 55.3492 45.0772 55.6918C45.7716 56.4424 46.4635 55.6107 47.0785 55.1246C49.4971 53.2125 51.773 51.1404 54.0773 49.0939C55.1752 48.1188 56.3432 47.2195 57.4236 46.2259C58.5181 45.2195 59.4293 44.0413 60.4546 42.9688C60.947 42.4539 61.5365 41.9431 61.8406 41.2853C62.0999 40.7244 62.1572 40.1141 62.4526 39.5594C62.9643 38.5988 63.9026 37.4836 63.6874 36.3218C63.0538 36.986 61.9986 39.3663 60.8931 38.25C60.104 37.4533 60.9099 36.2756 60.8748 35.3466C60.1257 35.6644 60.3203 36.9536 59.5217 37.1817C59.0897 37.3051 58.7202 36.914 58.5188 36.5711C58.1705 35.9783 58.2982 35.3579 58.4564 34.729C58.5642 34.3005 59.2522 32.887 58.5718 32.7126C57.982 32.5615 57.4879 33.646 57.2924 34.0303C56.9342 34.735 56.6569 35.4639 56.2636 36.1533C55.5854 37.3421 54.8043 38.4777 54.0595 39.6255C52.5255 41.9894 50.7763 44.2082 48.9771 46.3749C47.0553 48.6892 44.975 50.8713 42.6056 52.735ZM59.6448 60.2536C59.5673 62.3359 57.778 63.915 56.2299 65.0728C54.2516 66.5524 52.4265 68.2342 50.0669 69.0763C49.1586 69.4005 48.0243 69.3071 47.6603 70.3295C47.5181 70.7292 47.6472 70.8762 47.8013 71.2785C48.0424 71.908 48.1875 72.5907 48.3019 73.2532C48.6911 75.5075 48.3127 77.8031 46.9582 79.68C46.2382 80.6777 45.3181 81.5257 44.3668 82.2991C43.4179 83.0705 42.5203 83.9704 41.4741 84.6086C39.2428 85.9696 36.7641 86.7511 34.1912 87.1272C32.8531 87.3229 31.5095 87.4971 30.158 87.5662C29.4571 87.602 28.7551 87.6086 28.0539 87.5778C27.7406 87.5641 26.5755 87.2994 26.3491 87.4789C26.1748 87.6171 26.0972 88.4538 26.0623 88.6846C25.9883 89.1727 25.9299 89.6541 25.8291 90.1379C25.6268 91.1091 25.3539 92.208 25.6524 93.1878C25.7387 93.4712 25.8086 93.702 26.0711 93.7972C26.2374 93.8575 26.5321 93.7514 26.7003 93.7341C27.0808 93.695 27.4399 93.6798 27.8225 93.7203C29.0782 93.8532 30.3112 94.1741 31.5803 94.0866C34.2857 93.9002 36.9939 93.7098 39.6747 93.2865C40.9786 93.0806 42.2298 92.6909 43.5121 92.39C44.7343 92.1032 45.9558 91.8135 47.0966 91.2747C49.3315 90.2189 51.3971 88.8223 53.2422 87.1863C55.212 85.4396 56.516 83.3692 57.7482 81.0588C58.8307 79.0292 59.7434 76.9748 59.696 74.6351C59.6659 73.1544 59.4537 71.3198 60.3098 70.0139C60.7009 69.4174 61.4898 68.8646 62.2247 69.1801C63.5586 69.7526 62.2985 70.8863 61.7897 71.5074C61.0568 72.4022 61.1553 73.7647 61.0794 74.8589C60.9896 76.1502 60.6994 77.2827 60.4165 78.5315C60.1396 79.7537 60.6981 81.2036 60.7533 82.4504C60.8133 83.8024 60.7738 85.1558 60.7588 86.5083C60.7287 89.1984 60.8536 91.8814 60.8443 94.571C60.8395 95.966 60.8751 97.3679 60.7868 98.761C60.7066 100.031 60.4463 101.246 60.2186 102.494C59.9951 103.718 59.6693 105.184 59.7446 106.428C62.8011 105.265 65.7762 103.89 68.8798 102.851C67.9118 102.007 67.8688 100.814 67.7907 99.6238C67.6879 98.0541 67.4294 96.4977 67.3167 94.928C67.094 91.828 67.1566 88.5667 67.4203 85.4702C67.7035 82.1456 68.2056 78.8321 68.3089 75.4935C68.3586 73.8852 68.2342 72.2729 67.9723 70.6859C67.7515 69.3488 67.56 67.6663 66.8627 66.4817C66.1964 65.3497 64.9718 64.6306 63.9497 63.8595C62.4552 62.732 61.071 61.4641 59.6448 60.2536ZM59.8299 16.7696C60.2125 17.287 60.6449 17.7646 61.1025 18.2166C61.5746 18.6831 61.7756 18.58 62.3405 18.3374C63.4637 17.8547 63.4422 17.2964 62.8152 16.3286C61.3609 14.0838 60.8092 11.4106 59.2703 9.21176C57.7541 7.0453 55.5486 5.29487 53.2333 4.04561C50.7486 2.70503 48.0561 2.27846 45.2555 2.31845C43.8243 2.33895 42.3839 2.43773 40.9617 2.59809C39.5781 2.75397 38.3475 3.208 37.0082 3.5508C36.334 3.7233 35.6387 3.86645 34.9833 4.10351C34.4081 4.31142 33.8911 4.63254 33.31 4.82682C32.038 5.25179 30.758 5.72681 29.6105 6.42187C28.4883 7.10161 27.4775 7.82651 26.4584 8.66094C25.403 9.52512 24.4865 10.5295 23.3452 11.2882C22.3062 11.9792 21.4799 12.9098 20.5379 13.7195C19.5535 14.5653 18.6458 15.6019 17.9074 16.6708C17.1854 17.716 16.9106 19.0684 16.4744 20.2472C15.9667 21.6191 15.4631 23.0857 15.2719 24.5403C14.9154 27.2508 15.7154 30.4188 16.7325 32.9272C17.7385 35.4081 19.3689 37.4781 21.3143 39.2944C22.2627 40.1802 23.2976 40.9842 24.457 41.5765C25.4489 42.0832 26.7421 42.9944 27.8217 42.3577C28.2589 42.1 28.6136 41.8002 29.119 41.6841C29.6713 41.5574 30.2125 41.6092 30.6583 41.2042C31.0372 40.8601 31.2185 40.4447 31.7161 40.2369C32.306 39.9905 33.0038 39.9456 33.6355 39.9476C35.0542 39.9523 36.4736 40.3074 37.8275 40.7012C39.0682 41.062 40.1065 41.606 41.4246 41.2764C42.4041 41.0313 43.9751 40.38 44.1862 39.257C44.375 38.2535 43.6468 36.9561 43.2801 36.0579C42.7732 34.8169 42.314 33.5959 41.9957 32.2911C41.7432 31.2572 41.3469 29.6032 42.0593 28.6582C42.7593 27.7297 44.3776 27.7409 45.3831 27.9744C46.042 28.1274 46.6478 28.4357 47.3071 28.591C47.9788 28.7494 48.6736 28.8288 49.3588 28.9064C51.733 29.175 55.1109 28.5679 54.9845 25.5339C54.8719 22.8299 53.3819 20.1192 54.2544 17.4119C54.6101 16.3084 55.3365 15.0322 56.5462 14.7409C57.5057 14.5098 58.8024 14.752 59.6489 15.2539C60.3281 15.6567 61.0012 16.5003 59.8299 16.7696ZM12.1509 28.8474C9.7576 29.3144 8.1748 31.8371 7.73617 34.0742C7.53742 35.0879 7.46719 36.295 7.85163 37.2759C8.29475 38.4067 9.54709 38.8785 10.6522 39.1157C11.9155 39.3869 13.035 39.2809 14.0365 38.4051C14.4767 38.0199 14.8497 37.5713 15.1661 37.0811C15.4895 36.5799 15.9395 36.2146 15.6142 35.6543C14.8078 34.2662 14.1197 32.9024 13.5887 31.3752C13.3517 30.6937 13.1411 30.0279 12.9838 29.326C12.8589 28.7687 12.7985 28.4285 12.1509 28.8474ZM33.1118 43.9907C32.6486 44.4366 32.1165 44.792 31.5188 45.0316C30.8631 45.2945 30.6642 45.1683 30.6966 45.9267C30.7327 46.7643 30.7387 47.4346 30.3569 48.2139C30.1782 48.5787 29.5181 49.0711 29.6428 49.4814C29.8218 50.0705 31.655 50.666 32.1898 50.8719C33.4693 51.3648 34.9622 51.3749 36.17 50.6785C37.5728 49.8696 37.697 48.403 37.1685 46.9839C37.1121 46.8325 36.9071 46.5765 36.9575 46.4113C37.05 46.1082 37.4313 46.1519 37.6499 46.2676C38.1248 46.5189 38.3233 47.283 38.4255 47.7599C38.6986 49.0337 38.197 50.4134 37.2435 51.2911C36.759 51.7371 36.153 52.035 35.535 52.2498C35.1841 52.3718 34.8161 52.4682 34.4455 52.5055C34.1461 52.5355 33.7682 52.4412 33.4824 52.5265C32.9786 52.6766 32.9561 53.298 32.83 53.7522C32.6051 54.5641 32.5111 55.4429 32.4817 56.2828C32.4338 57.6413 32.5956 59.3721 33.3771 60.5238C35.2003 63.2109 38.7266 64.1436 41.4796 65.5265C42.9432 66.2616 44.3001 67.1852 45.6032 68.1724C45.7319 68.2699 45.9244 68.4611 46.079 68.5371C46.6013 68.7941 46.1452 68.7006 46.4795 68.5308C46.737 68.4 46.9573 68.1161 47.2233 67.9681C47.836 67.6271 48.5241 67.4431 49.1472 67.1208C50.5961 66.3716 51.878 65.4417 53.1639 64.4494C54.4815 63.4325 55.816 62.504 57.018 61.3465C57.5248 60.8585 58.0956 60.4562 58.6097 59.9892C59.1276 59.5186 58.4648 59.3233 58.0262 58.977C56.5335 57.7982 55.0595 56.5819 53.4655 55.54C52.9338 55.1923 52.4648 54.7236 51.91 54.4163C51.3307 54.0954 50.9869 54.3828 50.5306 54.7909C50.0319 55.2368 49.5565 55.6739 49.0014 56.0554C48.2684 56.5593 47.4162 56.802 46.6792 57.2817C47.1523 57.777 48.306 57.9427 48.4734 58.6929C48.6431 59.4532 47.5109 60.0465 46.9817 60.3401C46.0473 60.8586 45.0166 61.1735 43.9753 61.3984C43.1089 61.5855 41.8245 61.3038 41.1301 61.9578C40.9322 61.5391 40.7466 61.3203 41.0725 60.9198C41.3978 60.5199 41.978 60.4511 42.4373 60.2973C43.6777 59.8816 44.8993 59.3279 46.0995 58.8089C45.9402 58.4361 45.5421 58.181 45.2386 57.9382C44.8053 57.5915 44.4412 57.2074 44.0885 56.7765C43.4155 55.9542 42.8121 55.0772 42.1712 54.2308C41.8932 53.8638 41.6397 53.4972 41.1321 53.7004C40.6841 53.8799 40.2467 54.3452 39.8161 54.5862C38.8423 55.1313 37.9904 55.6547 36.9184 56.0016C36.4865 56.1413 34.7179 56.5392 35.1883 55.4581C35.3278 55.1377 35.7937 55.0057 36.0808 54.8655C36.6112 54.6065 37.1399 54.3424 37.6509 54.0465C38.7008 53.4389 39.6265 52.6538 40.6087 51.947C41.6922 51.1674 42.7941 50.4106 43.8114 49.5442C42.7992 48.8737 41.6764 48.3828 40.6296 47.7695C39.5718 47.1496 38.5059 46.5893 37.4117 46.0387C36.5404 45.6003 35.6548 45.1329 34.8603 44.5662C34.5445 44.3409 33.4581 43.4045 33.1118 43.9907ZM64.9377 22.1842C64.8045 22.2178 64.6727 22.2558 64.5421 22.2982C65.4294 23.6548 64.4498 25.3343 64.7275 26.8024C65.5467 26.3179 65.654 24.4336 66.8978 24.7819C68.2374 25.1572 67.5708 26.806 67.9763 27.7492C68.6095 27.1958 69.3487 27.713 69.6099 28.3694C69.8927 29.0808 69.5005 29.7375 69.6324 30.4415C69.7688 31.17 70.1757 30.6919 70.4014 30.2623C70.6889 29.7147 70.9402 28.9744 70.8342 28.3481C70.7053 27.5862 70.1939 26.8779 69.877 26.1859C69.5621 25.4983 69.264 24.7967 68.8083 24.1867C67.9453 23.0315 66.4464 21.9937 64.9377 22.1842ZM73.5187 38.4529C72.9395 37.007 72.0823 35.6831 71.5345 34.2257C71.3743 33.7995 71.2848 33.1202 70.8612 32.8576C70.5829 32.6852 70.2124 32.7887 69.9054 32.6959C69.5994 32.6035 69.2768 32.383 69.0574 32.1557C68.6558 31.7398 68.5256 31.1689 68.0521 30.8067C67.4409 30.3391 66.9687 30.1599 66.678 29.3788C66.4498 28.7653 66.4493 28.6752 65.7632 28.8121C65.0141 28.9616 64.4057 28.7786 63.889 28.1935C63.0139 27.2029 62.9172 25.8072 63.3466 24.6113C63.5475 24.0522 63.8969 23.4016 63.6067 22.816C63.337 22.2721 62.6822 21.8816 62.2672 21.4481C61.2184 20.3523 60.3975 19.0699 59.4141 17.9203C59.1787 17.6452 58.9381 17.3707 58.7566 17.0554C58.6414 16.8551 58.5733 16.5106 58.3063 16.4539C57.8465 16.3563 57.2047 17.1513 56.9734 17.4409C55.2805 19.5598 56.4917 22.4458 56.6979 24.8346C56.8029 26.051 57.0388 27.5095 56.4993 28.6549C55.991 29.7342 54.7043 30.273 53.6199 30.5735C52.1574 30.9789 50.5866 30.961 49.0983 30.7149C48.3189 30.586 47.5707 30.3659 46.8328 30.0871C46.0779 29.8017 45.2925 29.3109 44.5232 29.8287C43.53 30.4972 43.8369 31.8382 44.0549 32.8156C44.4113 34.4122 45.0334 35.9015 45.5838 37.4353C46.0461 38.7235 46.4204 40.3398 45.4486 41.4925C44.4779 42.6438 42.8681 43.3642 41.3699 43.3045C38.2638 43.1807 35.4284 40.8647 32.2542 41.8121C32.8506 42.0586 33.4811 42.2035 34.0638 42.4857C34.7672 42.8263 35.4184 43.2791 36.1013 43.658C37.4122 44.3852 38.7277 45.1019 40.0089 45.8811C41.1665 46.585 42.261 47.3561 43.3658 48.1361C44.7425 49.1082 45.4676 48.0316 46.3508 46.9816C48.2789 44.6898 50.1144 42.2628 51.8661 39.834C53.3891 37.7225 54.8028 35.5179 55.9042 33.1591C56.2983 32.315 56.9619 30.8832 58.115 31.0497C59.1387 31.1974 59.7357 32.4328 60.265 33.1887C60.6343 32.9241 60.9509 32.5703 61.4495 32.7159C61.8631 32.8366 62.1491 33.2608 62.3321 33.6227C62.4579 33.8714 62.5437 34.7098 62.7541 34.836C62.9037 34.9257 63.4758 34.7328 63.7309 34.7917C64.6036 34.9935 64.8826 36.1152 64.8737 36.8938C64.8614 37.967 64.413 39.0409 64.0455 40.0347C63.2218 42.2624 61.8107 44.0035 60.255 45.7639C58.6762 47.5503 57.0234 49.1695 55.2427 50.7548C54.8033 51.1461 54.3681 51.5417 53.9397 51.945C53.5884 52.2757 53.032 52.6197 52.757 53.0081C52.2482 53.7269 53.6095 54.0532 54.1161 54.3162C56.2957 55.4481 58.3042 56.9387 60.2237 58.4586C62.2032 60.0262 64.1937 61.5998 66.0958 63.2607C67.9565 64.8855 69.714 66.6174 71.6734 68.1284C73.6865 69.6806 75.7959 71.1139 77.8645 72.591C79.9353 74.0696 81.9501 75.6251 84.0183 77.1056C86.0395 78.5523 88.2092 79.7925 90.3352 81.0771C91.4473 81.7491 92.5653 82.4114 93.6825 83.0748C94.586 83.6112 95.5666 84.4449 96.6376 84.5128C97.6027 84.5739 98.518 84.929 99.0949 83.8797C99.5327 83.0832 99.3513 81.9874 98.968 81.2135C98.5 80.2691 97.768 79.4007 97.1799 78.5267C96.5037 77.5217 95.876 76.4876 95.2085 75.4774C94.5686 74.5089 93.8573 73.6147 93.1433 72.702C92.4194 71.7766 91.8702 70.7334 91.225 69.7536C89.8462 67.6588 88.4284 65.6019 87.121 63.4602C84.1229 58.5484 81.4378 53.4778 78.8718 48.3309C78.6458 47.8774 73.3711 38.5335 73.5187 38.4529ZM69.2975 68.6511C70.9088 74.2208 69.9795 79.8844 69.6491 85.5504C69.4822 88.4152 69.4567 91.2979 69.3826 94.1666C69.3466 95.5611 69.3491 96.9567 69.4069 98.3506C69.4361 99.0518 69.4874 99.7507 69.5373 100.451C69.5815 101.069 69.4154 101.754 69.4935 102.351C69.5935 103.116 71.1122 103.266 70.6455 104.248C70.3325 104.906 69.2365 105.007 68.6493 105.284C68.9103 105.587 69.3188 106.039 69.7542 106.068C70.1464 106.093 70.4493 105.753 70.8009 105.624C71.1131 105.51 71.5424 105.399 71.7396 105.764C71.9459 106.145 71.5137 106.569 71.3428 106.865C71.924 106.977 72.326 106.63 72.8502 106.662C73.4018 106.696 73.4268 107.238 73.7893 107.552C74.2038 107.912 74.9277 107.989 75.4388 108.14C76.0333 108.316 76.6308 108.534 77.1723 108.839C78.1403 109.384 78.9716 110.414 79.3294 111.469C79.7001 112.562 79.1212 113.508 78.2589 114.179C77.9377 114.428 77.4771 114.719 77.051 114.584C76.5641 114.43 76.488 114.034 75.8945 114.063C75.3615 114.09 74.8556 114.302 74.3198 114.33C73.5323 114.37 72.7455 114.226 71.9571 114.257C68.7757 114.379 65.594 114.406 62.418 114.1C61.5962 114.021 60.7907 113.956 59.9806 113.93C59.3507 113.91 59.298 113.44 59.1913 112.851C58.9335 111.426 59.5036 110.024 59.2213 108.64C59.24 108.731 58.7941 108.494 58.7404 108.448C58.413 108.173 58.3036 107.781 58.2061 107.375C57.9464 106.291 57.9491 105.187 58.0294 104.083C58.2119 101.575 58.6786 99.0903 58.6403 96.5693C58.621 95.2987 58.6594 94.031 58.6598 92.7609C58.6601 91.5941 58.7657 90.4426 58.7756 89.284C58.7971 86.7437 59.0645 84.2318 59.1391 81.6942C58.6103 82.2086 58.3299 82.9258 57.994 83.5677C57.5809 84.357 57.1202 85.138 56.6156 85.8725C55.5738 87.3891 54.176 88.6233 52.728 89.7423C49.9647 91.8776 46.9626 93.5312 43.5771 94.4369C39.9121 95.4172 36.2056 96.0791 32.4273 96.451C31.5531 96.537 30.6691 96.5836 29.793 96.4984C29.2192 96.4427 28.2867 95.9792 27.7415 96.2144C27.122 96.4817 26.9974 97.1245 26.185 96.9443C25.875 96.8754 25.6505 96.6683 25.3791 96.5289C24.9798 96.3234 24.964 96.4652 24.5828 96.4913C24.1578 96.5205 23.9031 96.3083 23.5327 96.6504C23.2182 96.941 23.2487 97.1445 23.536 97.4165C23.9398 97.7987 24.5861 97.8629 24.9903 98.262C25.3835 98.6502 25.3131 99.1274 24.7057 99.1332C24.0944 99.139 23.5513 98.704 22.954 98.6473C23.0813 100.414 23.6129 102.388 23.0235 104.122C22.75 104.926 22.1631 105.444 21.288 105.438C19.8237 105.429 18.5392 104.082 17.6573 103.033C17.1698 102.452 16.7746 101.801 16.3039 101.206C15.8226 100.599 15.3064 99.9877 15.0309 99.2529C14.7378 98.471 14.8234 97.6865 14.9873 96.8839C15.1901 95.8905 15.3786 94.887 15.6237 93.9031C16.099 91.9951 17.0553 90.2534 17.5381 88.3512C17.7207 87.6314 17.7184 86.7869 18.1792 86.1698C18.6672 85.5163 19.4263 85.4744 20.1792 85.5162C21.1111 85.5679 22.0423 85.671 22.9694 85.7765C23.5546 85.843 24.8374 86.2652 25.3138 85.9054C25.4777 85.7815 25.478 85.4569 25.6698 85.3449C25.8547 85.2369 26.1534 85.3145 26.3554 85.3295C27.3563 85.4037 28.3659 85.4939 29.3688 85.5232C33.0963 85.6322 37.0297 85.0513 40.3578 83.3196C41.9022 82.516 43.0787 81.251 44.3199 80.0561C45.5405 78.8813 46.6044 77.6166 46.9327 75.911C47.2326 74.3538 47.1191 72.4914 46.6211 70.9842C46.136 69.5159 44.4143 68.6266 43.1612 67.9026C41.4234 66.8987 39.5787 66.0667 37.7065 65.3459C37.4094 65.2315 37.0481 65.0859 36.7213 65.1444C36.3206 65.2161 36.0513 65.5633 35.6869 65.7166C35.2534 65.8988 34.7219 65.8997 34.2646 66.0062C33.8212 66.1092 33.3891 66.2511 32.9374 66.3192C31.5152 66.5338 29.5166 66.3625 28.3413 65.4541C26.42 63.9693 27.5809 61.8678 28.198 60.0607C27.5455 60.0386 27.0021 60.1912 26.3792 59.912C25.7587 59.6337 25.2735 59.141 24.9906 58.524C24.4758 57.4011 24.7732 56.1109 24.925 54.94C24.9937 54.4107 25.0721 53.8854 25.274 53.3881C25.4304 53.0031 25.6873 52.6361 25.7822 52.2288C25.8867 51.7803 25.7512 51.7541 25.377 51.5396C24.8002 51.209 24.3852 50.8286 24.0321 50.2482C23.3406 49.1113 23.3234 47.8704 23.8901 46.6745C24.1195 46.1904 24.6666 45.525 24.6044 44.9597C24.5509 44.4733 24.0003 44.0946 23.6762 43.7761C22.6753 42.7927 21.6109 41.8848 20.5009 41.0269C19.9821 40.6259 19.4107 40.262 18.9393 39.8065C18.5938 39.4728 18.2428 38.7469 17.7704 38.5714C17.2975 38.3957 16.9826 38.924 16.6531 39.207C16.1396 39.6482 15.6475 40.1559 15.088 40.5384C14.0843 41.2244 12.8398 41.0961 11.7064 40.877C10.5224 40.648 9.42426 40.2448 8.41479 39.5796C8.01371 39.3152 7.54529 38.7784 7.05146 38.7355C6.52397 38.6896 5.95094 39.214 5.57397 39.5287C4.58981 40.3506 4.29433 41.6271 3.7211 42.7312C3.08103 43.9643 2.80916 45.2441 2.9833 46.6302C3.14001 47.8773 3.62028 48.8195 4.33487 49.8268C4.48251 50.0352 4.8285 50.4287 4.57566 50.6591C4.26633 50.9412 3.63244 50.3757 3.42473 50.1931C1.36146 48.3785 0.188806 45.6442 0.858565 42.9069C1.2181 41.4372 1.92143 40.0774 2.73813 38.8129C3.08541 38.275 3.42423 37.7371 4.02824 37.4628C4.71573 37.1506 5.49477 37.1878 6.22918 37.1129C5.72121 34.6264 5.56221 31.9208 7.12309 29.7537C8.32085 28.0907 10.7737 26.6356 12.7178 27.9842C12.6381 26.151 12.3768 24.4102 12.8646 22.6053C13.0833 21.7965 13.3827 21.0094 13.7508 20.2566C14.1115 19.5189 14.6095 18.8934 14.9009 18.1254C16.0503 15.0964 18.2557 12.3907 20.6114 10.2168C22.9927 8.0193 25.3291 5.33844 28.3285 3.96364C31.4578 2.52915 34.6447 1.2401 38.0375 0.588313C41.559 -0.0882447 45.1787 -0.227117 48.7262 0.413429C51.836 0.974988 54.7141 2.8631 57.0673 4.89864C59.7525 7.22138 61.4859 10.0216 62.8572 13.2652C63.1585 13.9777 63.4489 14.6963 63.8183 15.3773C64.2283 16.1328 64.7548 16.8354 65.0563 17.6462C65.325 18.3692 65.3703 19.1535 64.8915 19.7995C64.5549 20.2537 63.8643 20.3563 63.5699 20.7717C63.4213 20.9812 63.4362 21.1805 63.7629 21.243C64.1002 21.3073 64.261 20.9312 64.5035 20.7803C65.1071 20.4046 65.9588 20.7247 66.5691 20.9381C68.0162 21.444 69.149 22.3527 70.015 23.6123C70.8438 24.8176 71.3942 26.1871 71.9413 27.5351C72.2866 28.3856 72.6153 29.2304 72.8053 30.1314C72.8769 30.4704 72.9766 31.3893 72.4409 30.9866C72.2237 30.8234 71.9132 32.0622 71.9718 32.2595C72.1755 32.9456 72.902 33.5888 73.3295 34.1442C74.3347 35.4501 75.0079 36.9129 75.7171 38.3897C77.253 41.5878 78.9634 44.6926 80.6066 47.8354C83.953 54.2355 87.6102 60.3898 91.4461 66.5071C93.3467 69.538 95.3061 72.5171 97.3377 75.4619C98.2342 76.7613 99.1334 78.0615 100.01 79.3741C100.756 80.4895 101.491 81.7316 101.299 83.1238C101.124 84.3986 100.366 85.4225 99.1418 85.8394C98.4856 86.0629 97.7066 86.3204 97.0041 86.2518C96.2361 86.1768 95.5585 85.6629 94.9183 85.2772C91.9764 83.5042 89.0341 81.733 86.0903 79.9633C82.7981 77.9842 79.7871 75.6342 76.6461 73.4336C75.0479 72.3139 73.3999 71.3048 71.7346 70.2913C71.3596 70.0631 69.6582 68.4279 69.2975 68.6511Z" fill="black"/>
<path fill-rule="evenodd" clip-rule="evenodd" d="M40.7912 74.2856C39.9871 75.4697 39.1415 76.5824 38.0096 77.4807C36.8171 78.427 35.5701 79.1938 34.2387 79.9281C31.8906 81.2231 28.7433 82.3698 26.0161 81.7828C25.2405 81.6159 23.9998 80.9373 24.674 79.9684C25.0129 79.4816 25.7399 79.6085 26.2545 79.6353C27.0835 79.6786 27.8087 79.7258 28.603 79.4469C30.0626 78.9341 31.5324 78.4505 32.9577 77.847C34.3382 77.2623 35.549 76.4605 36.8155 75.6728C38.0034 74.9339 38.9095 74.0497 39.953 73.1566C40.2387 72.912 40.7301 72.484 41.0004 72.9596C41.1958 73.3033 40.8983 73.9495 40.7912 74.2856Z" fill="black"/>
<path fill-rule="evenodd" clip-rule="evenodd" d="M73.2853 17.4175C73.1955 17.9304 72.9524 18.9507 72.2308 18.8114C71.3103 18.6336 71.7638 16.8317 71.7498 16.2199C71.6887 13.5545 70.8196 10.9915 69.5327 8.68054C68.8929 7.53165 68.1047 6.46918 67.5232 5.2874C67.4102 5.05776 67.0674 4.48827 67.3164 4.23916C67.6155 3.94 68.1889 4.39144 68.3997 4.60494C69.2145 5.4305 69.8636 6.66815 70.4926 7.63959C71.3325 8.93652 72.0744 10.3063 72.6071 11.7605C73.2502 13.5171 73.6115 15.5544 73.2853 17.4175Z" fill="black"/>
<path fill-rule="evenodd" clip-rule="evenodd" d="M75.0073 8.89385C75.0933 9.35605 75.5139 10.6137 74.7638 10.7253C73.9133 10.8517 73.6491 8.75615 73.413 8.20098C73.2884 7.9083 72.625 6.61931 72.9708 6.33872C73.6909 5.75457 74.8366 8.52189 75.0073 8.89385Z" fill="black"/>
<path fill-rule="evenodd" clip-rule="evenodd" d="M34.981 71.2655C34.1739 72.0009 33.2367 71.9577 32.2177 71.8878C31.7003 71.8523 30.5021 71.5459 31.3348 70.9041C31.7698 70.5689 35.1825 70.3383 34.981 71.2655Z" fill="black"/>
<path fill-rule="evenodd" clip-rule="evenodd" d="M97.8818 84.7321C97.9392 84.618 98.4236 84.0702 98.5281 84.2917C98.6266 84.5006 98.0097 84.7259 97.8818 84.7321Z" fill="black"/>
<path fill-rule="evenodd" clip-rule="evenodd" d="M33.676 44.0726C33.5767 44.2773 33.1621 44.0986 33.0192 44.1296C33.2132 43.714 33.444 43.803 33.676 44.0726Z" fill="black"/>
<path fill-rule="evenodd" clip-rule="evenodd" d="M64.8758 22.3325C64.8326 22.4967 64.7895 22.6609 64.7465 22.8251C64.6802 22.7021 64.6138 22.5791 64.5474 22.4561C64.6568 22.415 64.7664 22.3737 64.8758 22.3325Z" fill="black"/>
<path fill-rule="evenodd" clip-rule="evenodd" d="M65.6685 53.3574C66.7045 53.462 67.7439 53.5148 68.7841 53.5468C69.662 53.5737 70.0227 53.4077 70.1348 52.4952C70.2676 51.4133 70.3131 50.3218 70.4459 49.2396C70.5061 48.748 70.983 47.7654 70.4086 47.5022C69.9272 47.2817 69.1761 47.5976 68.6719 47.6347C68.1102 47.6762 67.2624 47.5048 66.766 47.8378C66.2351 48.1939 66.3506 49.4406 66.2601 50.0257C66.0877 51.1411 65.8799 52.249 65.6685 53.3574ZM65.1743 48.1032C64.2353 48.1741 63.2932 48.2301 62.3568 48.3302C61.9402 48.3748 61.0967 48.5809 60.7455 48.2777C59.9209 47.566 63.0024 47.3163 63.352 47.2602C63.9411 47.1656 64.9494 47.2912 65.3271 46.735C65.7007 46.185 65.6063 45.2606 65.7029 44.622C65.8482 43.6609 66.0144 42.7011 66.1114 41.7337C66.1439 41.4085 66.0975 40.3345 66.4408 40.1749C67.23 39.8081 66.982 43.5883 66.969 43.8721C66.9468 44.3599 66.9225 44.8501 66.8545 45.3339C66.8161 45.6065 66.6814 45.9754 66.7645 46.2493C67.0024 47.0348 68.3542 46.5817 68.9699 46.5191C69.6599 46.4488 70.7256 46.7161 70.954 45.8647C71.241 44.7947 71.1992 43.5796 71.3056 42.4787C71.335 42.1743 71.4119 39.9007 71.973 40.0769C72.5995 40.2737 72.3549 42.1737 72.3492 42.6628C72.3428 43.2149 72.345 43.7672 72.3075 44.3183C72.2739 44.8134 72.1344 45.4203 72.2377 45.9107C72.4189 46.7707 73.4385 46.3134 73.7343 46.9974C74.0155 47.6476 72.4827 47.1378 72.1964 47.3612C71.769 47.6947 71.8719 49.0882 71.8108 49.576C71.6768 50.6477 71.4194 51.7607 71.3357 52.8292C71.2698 53.6727 71.9479 53.5607 72.6379 53.4997C73.2296 53.4473 73.8798 53.3067 74.4729 53.3856C74.9495 53.449 75.6153 53.888 74.9215 54.1802C73.8367 54.6371 71.628 53.7036 71.083 55.0913C70.9803 55.3531 70.5019 58.389 69.9008 56.8903C69.6496 56.2639 70.2647 55.2811 69.6088 54.8011C69.3814 54.6346 69.0425 54.664 68.7786 54.6456C68.1289 54.6003 67.4749 54.5848 66.824 54.5714C66.1748 54.558 65.5915 54.4273 65.3408 55.1383C65.1455 55.6923 65.1671 56.3123 65.0111 56.8792C64.8941 57.3042 64.5098 58.0481 64.1113 57.3529C63.8495 56.8962 64.0499 56.0982 64.1016 55.6016C64.1274 55.353 64.2756 54.8385 64.087 54.6297C63.8845 54.4055 63.3426 54.5269 63.0865 54.5471C62.347 54.6057 60.97 54.9616 60.404 54.291C59.9305 53.7299 60.9148 53.7192 61.3019 53.6812C61.7005 53.6421 62.0994 53.606 62.4978 53.5641C62.9364 53.5179 63.5171 53.5797 63.9299 53.4422C64.6231 53.2112 64.5737 52.2687 64.6193 51.6574C64.7083 50.4631 64.977 49.2834 65.1743 48.1032Z" fill="black"/>
<path fill-rule="evenodd" clip-rule="evenodd" d="M77.3556 50.6539C77.2997 51.3435 77.2249 52.1166 77.0023 52.7718C76.8338 53.2672 76.4937 53.4177 76.3777 52.787C76.3043 52.3873 76.7927 50.1345 77.3556 50.6539Z" fill="black"/>
<path fill-rule="evenodd" clip-rule="evenodd" d="M33.5819 46.1137C33.3054 45.9152 31.9959 44.871 32.9424 44.8297C33.4257 44.8086 34.467 45.6036 34.4968 46.0445C34.5044 46.1559 34.2663 46.2135 34.2792 46.3212C34.3039 46.5263 34.6075 46.6235 34.7053 46.7865C34.921 47.1462 34.8315 47.8566 34.553 48.1985C33.9178 48.9781 33.2125 47.6583 33.7042 47.3993C33.5946 47.457 32.1243 46.7096 32.0691 46.5408C31.7667 45.6159 33.5077 46.4873 33.5819 46.1137Z" fill="black"/>
<path fill-rule="evenodd" clip-rule="evenodd" d="M35.8902 49.7535C35.5543 49.764 34.8797 49.7408 34.6282 49.5009C34.1605 49.0552 35.0727 48.996 35.3395 48.7884C35.7136 48.4975 35.787 47.5513 36.3742 48.1367C36.9566 48.7175 36.4444 49.3931 35.8902 49.7535Z" fill="black"/>
<path fill-rule="evenodd" clip-rule="evenodd" d="M31.0486 47.2967C31.6558 47.2077 33.0068 48.5166 32.3512 48.6037C31.9173 48.6613 31.1433 47.6465 31.0486 47.2967Z" fill="black"/>
</svg>
