<svg width="220" height="249" viewBox="0 0 220 249" fill="none" xmlns="http://www.w3.org/2000/svg">
<path fill-rule="evenodd" clip-rule="evenodd" d="M124.581 36.3953C125.994 36.2441 126.196 38.1616 126.389 39.0357C126.934 38.6919 127.419 39.0206 127.542 38.2176C129.266 40.0235 130.646 42.0962 132.177 44.058C133.644 45.9402 135.939 47.4372 137.209 49.4159C138.286 51.0957 136.508 53.6462 136.288 55.4375C136.041 57.4562 136.567 59.7666 137.946 61.3056C138.591 62.0254 139.38 62.5254 140.333 62.7187C141.281 62.911 142.183 62.355 143.017 62.4733C143.71 62.5715 143.74 63.0293 143.982 63.7095C144.313 64.6427 144.735 65.5238 145.517 66.1793C146.391 66.9114 147.329 67.1229 147.996 68.1067C148.578 68.9651 148.908 69.7964 149.81 70.3925C151.014 71.1877 152.945 71.428 152.815 73.2849C153.022 73.1205 153.229 72.9561 153.436 72.7916C153.915 74.3338 154.576 75.8269 155.281 77.277C155.611 77.9565 155.781 78.3175 155.764 79.0736C155.753 79.5717 155.48 79.9484 155.775 80.4305C156.247 81.2021 157.51 81.0975 158.086 81.7214C158.678 82.3611 158.064 83.229 158.747 83.7866C158.459 83.875 157.662 84.5191 157.962 84.9103C158.393 85.4728 158.426 84.7023 158.728 84.795C159.422 85.0076 159.276 85.874 159.817 86.1095C159.929 86.158 159.92 85.6388 159.914 85.5051L159.913 85.5002L160.332 86.316C163.851 93.1269 167.976 99.6154 171.291 106.525L171.685 107.356C177.929 120.703 185.352 133.699 193.561 145.942C195.497 148.83 197.622 151.698 199.413 154.669C201.212 157.654 203.454 160.3 205.444 163.154C207.491 166.091 209.364 169.147 211.428 172.07C213.073 174.402 215.085 176.883 215.058 179.889C215.046 181.225 214.851 182.701 213.564 183.419C213.533 182.868 212.699 183.477 212.5 183.613C211.64 184.198 212.108 184.133 211.181 183.929C209.676 183.596 208.391 184.046 206.999 183.191C204.046 181.377 201.136 179.511 198.131 177.78C191.634 174.039 185.203 170.209 179.177 165.737C168.642 157.921 157.196 150.917 147.515 142.026C137.841 133.141 127.688 124.327 116.208 117.829C115.439 117.394 113.233 116.74 113.437 115.701C113.615 114.791 115.598 113.514 116.294 112.884C118.709 110.696 121.223 108.626 123.552 106.344C127.852 102.132 132.119 97.4835 135.568 92.5414C137.246 90.1372 138.102 87.4632 139.081 84.7297C139.946 82.3168 140.745 79.3463 139.342 76.9591C138.692 75.8533 137.795 75.4048 136.541 75.4887C135.503 75.5581 135.549 75.7707 135.138 74.6694C134.695 73.4841 134.335 72.1086 133.146 71.4223C131.915 70.7112 131.077 71.4695 130.08 72.1812C128.933 70.525 127.526 67.6594 125.214 67.5009C122.799 67.3355 121.428 70.3181 120.594 72.112C118.129 77.4165 114.921 82.3717 111.472 87.0955C107.732 92.216 103.91 97.4246 99.7898 102.246C98.9174 103.267 97.9271 104.757 96.6981 105.376C95.4374 106.011 94.3912 105.415 93.3255 104.683C90.8141 102.961 88.3719 101.192 85.7573 99.6146C82.8613 97.8676 79.884 96.2674 76.9303 94.6215C75.6274 93.8955 74.391 93.0211 73.0482 92.3691C71.7972 91.7614 70.4347 91.4605 69.1541 90.9287C73.8568 89.5266 78.8103 91.3634 83.2615 92.8202C85.5718 93.5763 87.9877 94.3635 90.4542 94.1602C92.5875 93.9846 94.5234 92.8423 96.2107 91.5948C99.2611 89.3398 99.5005 85.9525 98.5059 82.529C97.3614 78.5885 95.6107 74.7988 94.2881 70.9122C93.6866 69.1444 93.2722 67.2667 94.6415 65.7392C95.8669 64.3723 97.4526 64.2041 99.1252 64.7422C103.18 66.0471 106.778 67.2723 111.125 67.1484C114.523 67.0517 118.846 66.0872 121.136 63.3252C122.391 61.8113 122.439 59.7296 122.444 57.8518C122.45 55.6263 122.31 53.3881 121.998 51.185C121.443 47.2538 120.001 43.3175 121.809 39.5005C122.233 38.6054 123.413 36.5203 124.581 36.3953ZM159.913 85.4874L159.913 85.5002L159.912 85.4971C159.911 85.4686 159.912 85.4683 159.913 85.4874ZM19.2506 67.0349C20.3132 65.5649 23.2209 62.1419 25.441 62.8909C25.8287 63.0218 26.1088 63.4084 26.3644 63.6961C26.5455 63.9314 26.725 64.1676 26.9033 64.4051C27.014 64.7173 27.2128 64.8093 27.4999 64.6814C28.2784 65.7597 29.3771 66.5739 29.8247 67.8982C30.2678 69.2103 31.4577 70.4828 32.1593 71.6863C32.7022 72.6172 33.926 75.1022 33.8324 76.2663V79.2372C33.7219 80.392 31.5632 82.4578 30.8041 83.2389C28.9192 85.1792 26.8718 85.4274 24.0784 85.1798C21.712 84.97 18.6471 84.1812 17.0452 82.3003C15.5078 80.4956 15.5296 77.6987 15.7571 75.4761C16.0748 72.3724 17.4363 69.545 19.2506 67.0349ZM26.5316 67.5275C26.0985 66.7228 25.1505 66.5239 24.3176 66.6194C23.4851 66.7146 22.5296 66.7845 21.7662 67.1559C21.0613 67.4992 20.7045 68.1001 19.8258 67.8982C20.1738 68.4981 19.5502 68.8445 19.4604 69.385C19.3449 70.0792 19.5688 70.7016 20.0274 71.2285C20.9769 72.3196 22.3951 72.2984 23.7148 72.4048C24.8304 72.4947 26.2027 72.6794 26.8582 73.7248C27.281 74.3989 26.8975 74.8846 27.0956 75.5617C27.2413 76.0605 27.8508 76.3471 28.1174 76.7753C29.0103 75.4611 28.979 72.6455 28.4345 71.2401C28.1772 70.5763 27.6907 69.7119 27.3052 69.1288C27.1791 68.9379 26.8813 68.7102 26.8021 68.5525C26.665 68.2803 26.6814 67.8053 26.5316 67.5275Z" fill="#EA745D"/>
<path fill-rule="evenodd" clip-rule="evenodd" d="M130.622 242.833C132.238 242.201 134.229 242.496 135.923 242.527C138.049 242.565 140.181 242.726 142.301 242.892C146.373 243.211 150.424 243.076 154.499 243.457C156.522 243.646 158.546 243.821 160.571 243.993C162.343 244.144 164.402 244.614 166.171 244.276C166.902 244.136 168.874 243.449 168.508 242.379C168.226 241.553 166.006 241.044 165.283 240.809C163.582 240.256 161.825 239.86 160.106 239.367C159.222 239.114 158.343 238.841 157.413 238.929C156.623 239.004 155.792 239.593 154.992 239.525C153.809 239.425 153.2 237.94 152.332 237.285C150.951 236.242 149.927 236.799 148.868 237.949C148.085 238.799 147.339 240.085 146.054 240.161C144.42 240.258 144.102 238.856 144.823 237.668C145.488 236.573 147.296 235.451 147.393 234.087C147.455 233.224 146.075 230.917 145.281 230.588C143.946 230.037 142.059 231.497 140.852 231.946C138.744 232.729 136.593 233.422 134.458 234.129C132.999 234.612 130.832 234.655 130.557 236.366C130.212 238.507 130.632 240.682 130.622 242.833ZM47.0785 209.909C47.5029 208.969 47.9488 208.434 47.1002 207.561C46.6258 207.073 45.9566 206.833 45.4896 206.327C44.7882 205.566 43.6885 203.486 45.1926 202.962C46.6301 202.462 47.8412 204.463 48.9982 204.902C50.4664 205.46 51.3762 204.525 51.5862 203.122C51.8561 201.319 51.5593 199.435 51.7745 197.61C51.985 195.821 52.6101 194.335 53.0897 192.622C53.4147 191.46 53.8125 190.291 52.3376 190.033C50.9849 189.797 49.4159 190.359 48.0442 190.434C45.9049 190.552 43.74 190.66 41.6184 190.981C39.2497 191.339 39.2928 193.761 38.6981 195.741C37.2563 200.542 35.3227 205.252 34.4224 210.201C34.0342 212.335 35.0633 213.796 36.2609 215.475C37.7605 217.575 39.3205 219.671 41.0187 221.617C42.1528 222.917 43.4305 224.127 45.0821 224.725C46.9528 225.402 47.6676 224.65 47.2361 222.806C46.6663 220.372 45.8064 218.021 45.9077 215.486C45.9447 214.563 46.2133 213.571 45.5476 212.798C45.086 212.263 44.2949 212.082 43.6926 211.756C42.6995 211.218 41.1607 209.487 43.0957 209.115C44.4099 208.862 45.8064 209.745 47.0785 209.909ZM91.7638 114.563C92.9446 115.881 94.2279 117.143 95.3475 118.512C95.9894 119.298 96.4441 120.242 97.133 120.986C98.6416 122.617 100.145 120.81 101.481 119.754C106.735 115.6 111.679 111.099 116.685 106.653C119.07 104.535 121.608 102.581 123.955 100.423C126.332 98.2362 128.312 95.6765 130.539 93.3467C131.609 92.2281 132.89 91.1183 133.55 89.6894C134.114 88.4708 134.238 87.1449 134.88 85.9399C135.991 83.8531 138.03 81.4305 137.562 78.9065C136.186 80.3495 133.893 85.5204 131.492 83.0954C129.778 81.3646 131.528 78.806 131.452 76.788C129.825 77.4785 130.248 80.2791 128.513 80.7746C127.574 81.0426 126.771 80.193 126.334 79.4481C125.577 78.1603 125.855 76.8124 126.198 75.4462C126.433 74.5154 127.927 71.4446 126.449 71.0658C125.168 70.7375 124.094 73.0936 123.67 73.9284C122.891 75.4593 122.289 77.0428 121.435 78.5404C119.961 81.123 118.264 83.5901 116.646 86.0836C113.314 91.219 109.514 96.0392 105.605 100.746C101.43 105.774 96.9109 110.514 91.7638 114.563ZM128.78 130.897C128.612 135.42 124.725 138.851 121.362 141.366C117.064 144.58 113.099 148.234 107.973 150.063C106 150.768 103.535 150.565 102.745 152.786C102.436 153.654 102.716 153.973 103.051 154.847C103.575 156.215 103.89 157.698 104.139 159.137C104.984 164.035 104.162 169.022 101.219 173.099C99.6551 175.266 97.6563 177.109 95.5897 178.789C93.5282 180.465 91.5783 182.42 89.3056 183.806C84.4582 186.763 79.0734 188.46 73.4839 189.278C70.5769 189.703 67.6581 190.081 64.7221 190.231C63.1996 190.309 61.6744 190.323 60.1511 190.257C59.4704 190.227 56.9394 189.652 56.4476 190.042C56.0689 190.342 55.9003 192.16 55.8246 192.661C55.6638 193.721 55.5369 194.767 55.3179 195.818C54.8784 197.928 54.2856 200.315 54.934 202.444C55.1216 203.059 55.2733 203.561 55.8436 203.768C56.2048 203.899 56.8452 203.668 57.2105 203.631C58.037 203.546 58.8172 203.513 59.6485 203.601C62.3763 203.889 65.055 204.586 67.8119 204.396C73.6893 203.991 79.5727 203.578 85.3964 202.658C88.2292 202.211 90.9472 201.364 93.733 200.711C96.388 200.088 99.0418 199.458 101.52 198.288C106.375 195.994 110.863 192.96 114.871 189.406C119.15 185.611 121.983 181.114 124.66 176.094C127.011 171.685 128.994 167.222 128.891 162.139C128.826 158.923 128.365 154.937 130.225 152.1C131.074 150.804 132.788 149.603 134.385 150.289C137.283 151.532 134.545 153.995 133.44 155.345C131.848 157.289 132.062 160.248 131.897 162.626C131.702 165.431 131.071 167.891 130.456 170.604C129.855 173.259 131.068 176.409 131.188 179.118C131.318 182.055 131.233 184.995 131.2 187.933C131.135 193.777 131.406 199.606 131.386 205.449C131.375 208.479 131.453 211.525 131.261 214.551C131.087 217.311 130.521 219.951 130.027 222.66C129.541 225.319 128.833 228.504 128.997 231.207C135.637 228.68 142.1 225.694 148.843 223.436C146.74 221.603 146.646 219.012 146.476 216.426C146.253 213.015 145.692 209.634 145.447 206.224C144.963 199.49 145.099 192.405 145.672 185.678C146.287 178.455 147.378 171.257 147.602 164.004C147.71 160.51 147.44 157.008 146.871 153.56C146.391 150.655 145.975 147 144.46 144.427C143.013 141.968 140.353 140.405 138.132 138.73C134.886 136.281 131.878 133.526 128.78 130.897ZM129.182 36.4307C130.013 37.5547 130.953 38.5923 131.947 39.5743C132.972 40.5876 133.409 40.3637 134.636 39.8366C137.076 38.7881 137.03 37.5753 135.667 35.4727C132.508 30.5962 131.31 24.7888 127.967 20.0119C124.673 15.3054 119.881 11.5027 114.852 8.7888C109.454 5.87648 103.604 4.9498 97.5204 5.03667C94.4112 5.08119 91.282 5.29579 88.1924 5.64416C85.1867 5.98281 82.5132 6.96914 79.6037 7.71386C78.1391 8.0886 76.6285 8.39958 75.2047 8.91458C73.9553 9.36625 72.8321 10.0639 71.5697 10.4859C68.8064 11.4091 66.0256 12.4411 63.5326 13.951C61.0949 15.4277 58.8988 17.0025 56.6851 18.8153C54.3923 20.6926 52.4012 22.8745 49.9219 24.5228C47.6646 26.0239 45.8696 28.0456 43.8231 29.8045C41.6847 31.6421 39.7126 33.894 38.1085 36.2161C36.5401 38.4868 35.943 41.4248 34.9955 43.9855C33.8926 46.9659 32.7986 50.1521 32.3831 53.312C31.6087 59.2004 33.3466 66.0827 35.5563 71.532C37.7417 76.9216 41.2836 81.4184 45.5099 85.3644C47.5703 87.2886 49.8184 89.0352 52.3372 90.322C54.4918 91.4228 57.3014 93.4022 59.6468 92.0191C60.5964 91.4591 61.3671 90.808 62.465 90.5558C63.6649 90.2805 64.8405 90.3931 65.809 89.5133C66.6322 88.7657 67.0259 87.8633 68.1069 87.4118C69.3886 86.8765 70.9044 86.779 72.2767 86.7834C75.3588 86.7935 78.4424 87.565 81.3835 88.4204C84.0788 89.2042 86.3346 90.3861 89.1981 89.67C91.3259 89.1377 94.7389 87.7226 95.1975 85.2831C95.6076 83.103 94.0256 80.2845 93.2289 78.3332C92.1278 75.6372 91.1303 72.9846 90.4386 70.1501C89.8902 67.9041 89.0293 64.3108 90.5769 62.258C92.0975 60.2408 95.6132 60.2652 97.7976 60.7724C99.229 61.1048 100.545 61.7745 101.977 62.1119C103.436 62.4559 104.946 62.6286 106.435 62.7972C111.592 63.3807 118.931 62.0617 118.656 55.4706C118.411 49.5962 115.174 43.7076 117.07 37.8262C117.843 35.4288 119.421 32.6563 122.049 32.0236C124.133 31.5215 126.95 32.0478 128.789 33.1381C130.265 34.0131 131.727 35.8457 129.182 36.4307ZM25.603 62.669C20.4037 63.6834 16.9652 69.1638 16.0123 74.0237C15.5805 76.2259 15.428 78.8484 16.2631 80.9793C17.2258 83.4358 19.9464 84.4608 22.3472 84.976C25.0916 85.5651 27.5236 85.335 29.6992 83.4323C30.6556 82.5956 31.4659 81.6209 32.1532 80.5561C32.856 79.4671 33.8335 78.6736 33.1267 77.4564C31.375 74.4408 29.8802 71.4781 28.7264 68.1604C28.2116 66.6798 27.754 65.2334 27.4123 63.7087C27.1411 62.4979 27.0098 61.759 25.603 62.669ZM71.139 95.5665C70.1328 96.5354 68.9769 97.3073 67.6784 97.8279C66.2539 98.3991 65.8217 98.1249 65.8923 99.7725C65.9706 101.592 65.9836 103.048 65.1543 104.741C64.766 105.534 63.332 106.603 63.603 107.495C63.9917 108.775 67.9743 110.068 69.136 110.516C71.9157 111.586 75.159 111.608 77.7827 110.095C80.8304 108.338 81.1 105.152 79.9519 102.069C79.8294 101.74 79.384 101.184 79.4935 100.825C79.6946 100.167 80.5228 100.262 80.9979 100.513C82.0295 101.059 82.4607 102.719 82.6827 103.755C83.2759 106.522 82.1862 109.52 80.1149 111.426C79.0624 112.395 77.7459 113.042 76.4032 113.509C75.641 113.774 74.8415 113.983 74.0364 114.064C73.3861 114.13 72.565 113.925 71.9441 114.11C70.8496 114.436 70.8007 115.786 70.527 116.773C70.0383 118.537 69.8342 120.446 69.7701 122.27C69.6662 125.222 70.0177 128.982 71.7153 131.484C75.6763 137.321 83.3367 139.347 89.3175 142.352C92.497 143.949 95.4449 145.955 98.2757 148.1C98.5553 148.312 98.9736 148.727 99.3093 148.892C100.444 149.45 99.4532 149.247 100.18 148.878C100.739 148.594 101.217 147.977 101.795 147.656C103.126 146.915 104.621 146.515 105.975 145.815C109.122 144.187 111.907 142.167 114.701 140.012C117.563 137.802 120.462 135.786 123.073 133.271C124.175 132.211 125.414 131.337 126.531 130.322C127.657 129.3 126.217 128.876 125.264 128.123C122.021 125.562 118.819 122.92 115.356 120.657C114.201 119.901 113.182 118.883 111.977 118.215C110.718 117.518 109.972 118.143 108.98 119.029C107.897 119.998 106.864 120.948 105.658 121.776C104.066 122.871 102.214 123.398 100.613 124.44C101.641 125.516 104.147 125.876 104.511 127.506C104.88 129.158 102.42 130.447 101.271 131.085C99.2405 132.211 97.0014 132.895 94.7393 133.384C92.8571 133.79 90.0668 133.178 88.5583 134.599C88.1283 133.689 87.7251 133.214 88.433 132.344C89.1399 131.475 90.4003 131.326 91.398 130.992C94.0927 130.089 96.7466 128.886 99.3539 127.758C99.0078 126.948 98.143 126.394 97.4836 125.867C96.5423 125.113 95.7513 124.279 94.9852 123.343C93.5231 121.557 92.2122 119.651 90.8199 117.813C90.2161 117.015 89.6653 116.219 88.5627 116.66C87.5894 117.05 86.6391 118.061 85.7037 118.585C83.5882 119.769 81.7374 120.906 79.4087 121.659C78.4703 121.963 74.6281 122.827 75.6501 120.479C75.9531 119.783 76.9653 119.496 77.589 119.191C78.7412 118.629 79.8898 118.055 81 117.412C83.2807 116.092 85.2919 114.387 87.4256 112.851C89.7794 111.157 92.1732 109.514 94.3831 107.631C92.1843 106.175 89.745 105.108 87.471 103.776C85.1729 102.429 82.8574 101.212 80.4802 100.016C78.5874 99.0634 76.6636 98.0479 74.9376 96.817C74.2516 96.3275 71.8913 94.2932 71.139 95.5665ZM140.279 48.1937C139.989 48.2665 139.703 48.349 139.419 48.4413C141.347 51.3884 139.219 55.037 139.822 58.2262C141.602 57.1737 141.835 53.0802 144.537 53.837C147.447 54.6521 145.999 58.2342 146.88 60.2831C148.255 59.0809 149.861 60.2045 150.429 61.6306C151.043 63.176 150.191 64.6026 150.477 66.132C150.774 67.7146 151.658 66.6759 152.148 65.7428C152.773 64.5531 153.319 62.9448 153.088 61.5841C152.808 59.9289 151.697 58.3902 151.009 56.887C150.325 55.3932 149.677 53.869 148.687 52.5438C146.812 50.0343 143.556 47.7798 140.279 48.1937ZM158.92 83.5363C157.662 80.3951 155.8 77.5189 154.61 74.3529C154.262 73.427 154.067 71.9512 153.147 71.3809C152.542 71.0062 151.737 71.2311 151.071 71.0295C150.406 70.8287 149.705 70.3498 149.228 69.856C148.356 68.9524 148.073 67.7122 147.044 66.9253C145.717 65.9096 144.691 65.5202 144.059 63.8233C143.563 62.4905 143.562 62.2949 142.072 62.5923C140.445 62.9171 139.123 62.5195 138 61.2483C136.099 59.0963 135.889 56.0642 136.822 53.4663C137.258 52.2516 138.018 50.8382 137.387 49.5662C136.801 48.3845 135.379 47.5363 134.477 46.5944C132.199 44.214 130.415 41.4281 128.279 38.9305C127.767 38.3329 127.245 37.7367 126.85 37.0516C126.6 36.6166 126.452 35.8682 125.872 35.745C124.873 35.533 123.479 37.2599 122.977 37.889C119.299 42.4922 121.93 48.7618 122.378 53.9513C122.606 56.5939 123.119 59.7623 121.947 62.2506C120.842 64.5954 118.047 65.7659 115.692 66.4188C112.514 67.2994 109.102 67.2605 105.869 66.7259C104.175 66.446 102.55 65.9677 100.947 65.362C99.3069 64.7422 97.6009 63.6759 95.9294 64.8007C93.7719 66.253 94.4385 69.1662 94.9123 71.2895C95.6864 74.7581 97.038 77.9935 98.2337 81.3255C99.2379 84.1241 100.051 87.6353 97.9398 90.1396C95.8312 92.6406 92.334 94.2057 89.0793 94.076C82.3315 93.807 76.1717 88.7757 69.276 90.8337C70.5715 91.3692 71.9413 91.6841 73.2071 92.2972C74.7353 93.0372 76.15 94.0207 77.6336 94.8439C80.4813 96.4236 83.3391 97.9807 86.1225 99.6733C88.6373 101.203 91.0149 102.878 93.4151 104.572C96.406 106.684 97.9811 104.345 99.8999 102.064C104.089 97.0854 108.076 91.8129 111.881 86.5366C115.19 81.9494 118.261 77.1601 120.654 72.0357C121.51 70.202 122.952 67.0915 125.457 67.4533C127.681 67.7742 128.978 70.4579 130.128 72.1001C130.93 71.5252 131.618 70.7565 132.701 71.0729C133.599 71.3351 134.22 72.2568 134.618 73.043C134.891 73.5833 135.078 75.4047 135.535 75.6787C135.86 75.8736 137.103 75.4546 137.657 75.5825C139.553 76.0208 140.159 78.4577 140.14 80.1492C140.113 82.4806 139.139 84.8135 138.34 86.9725C136.551 91.812 133.485 95.5944 130.106 99.4187C126.676 103.3 123.085 106.817 119.217 110.261C118.262 111.111 117.317 111.971 116.386 112.847C115.623 113.565 114.414 114.312 113.817 115.156C112.711 116.718 115.669 117.427 116.769 117.998C121.504 120.457 125.868 123.695 130.038 126.997C134.338 130.403 138.662 133.821 142.794 137.429C146.837 140.959 150.655 144.721 154.911 148.004C159.285 151.376 163.867 154.49 168.361 157.699C172.86 160.911 177.237 164.29 181.73 167.506C186.121 170.649 190.834 173.343 195.453 176.134C197.869 177.594 200.297 179.033 202.725 180.474C204.687 181.639 206.818 183.451 209.144 183.598C211.241 183.731 213.229 184.502 214.483 182.223C215.434 180.492 215.04 178.112 214.207 176.431C213.19 174.379 211.6 172.492 210.323 170.594C208.853 168.41 207.49 166.164 206.04 163.969C204.649 161.865 203.104 159.923 201.553 157.94C199.981 155.929 198.787 153.663 197.386 151.535C194.39 146.984 191.31 142.515 188.47 137.863C181.957 127.192 176.124 116.177 170.549 104.995C170.058 104.01 158.6 83.7113 158.92 83.5363ZM149.75 149.14C153.25 161.239 151.231 173.543 150.514 185.852C150.151 192.076 150.096 198.338 149.935 204.57C149.857 207.6 149.862 210.632 149.988 213.66C150.051 215.183 150.163 216.701 150.271 218.222C150.367 219.566 150.006 221.053 150.176 222.35C150.393 224.012 153.692 224.338 152.678 226.47C151.998 227.901 149.617 228.119 148.342 228.723C148.909 229.379 149.796 230.362 150.742 230.424C151.594 230.48 152.252 229.741 153.016 229.461C153.694 229.213 154.627 228.972 155.055 229.764C155.503 230.593 154.565 231.514 154.193 232.156C155.456 232.4 156.329 231.647 157.468 231.716C158.666 231.789 158.72 232.968 159.508 233.65C160.409 234.43 161.981 234.598 163.091 234.926C164.383 235.308 165.681 235.781 166.857 236.444C168.96 237.629 170.766 239.867 171.543 242.158C172.349 244.533 171.091 246.588 169.218 248.045C168.52 248.588 167.52 249.218 166.594 248.926C165.536 248.591 165.371 247.73 164.081 247.794C162.924 247.852 161.824 248.314 160.66 248.373C158.95 248.461 157.24 248.149 155.528 248.215C148.616 248.48 141.704 248.539 134.805 247.874C133.019 247.703 131.27 247.562 129.51 247.506C128.141 247.462 128.027 246.441 127.795 245.16C127.235 242.066 128.473 239.019 127.86 236.013C127.901 236.211 126.932 235.695 126.815 235.596C126.104 234.998 125.866 234.147 125.655 233.264C125.091 230.91 125.096 228.512 125.271 226.112C125.667 220.664 126.681 215.267 126.598 209.79C126.556 207.03 126.639 204.276 126.64 201.516C126.641 198.982 126.87 196.48 126.892 193.963C126.939 188.444 127.519 182.988 127.682 177.475C126.533 178.592 125.924 180.15 125.194 181.545C124.296 183.26 123.296 184.956 122.199 186.552C119.936 189.847 116.9 192.528 113.754 194.959C107.751 199.598 101.229 203.19 93.8741 205.157C85.9122 207.287 77.8602 208.725 69.652 209.533C67.7529 209.72 65.8326 209.821 63.9291 209.636C62.6828 209.515 60.6568 208.508 59.4726 209.019C58.1266 209.6 57.8559 210.996 56.091 210.605C55.4177 210.455 54.9299 210.005 54.3404 209.702C53.4729 209.256 53.4385 209.564 52.6105 209.621C51.6872 209.684 51.1339 209.223 50.3292 209.966C49.646 210.597 49.7122 211.04 50.3363 211.63C51.2135 212.461 52.6176 212.6 53.4957 213.467C54.3499 214.311 54.1969 215.347 52.8773 215.36C51.5494 215.372 50.3694 214.427 49.072 214.304C49.3486 218.142 50.5034 222.431 49.2228 226.197C48.6288 227.944 47.3538 229.069 45.4528 229.057C42.2716 229.037 39.4811 226.11 37.5653 223.831C36.5061 222.571 35.6476 221.155 34.625 219.864C33.5795 218.544 32.4582 217.216 31.8596 215.62C31.2228 213.921 31.4088 212.217 31.7648 210.473C32.2054 208.315 32.6149 206.135 33.1475 203.998C34.18 199.853 36.2575 196.069 37.3062 191.937C37.7029 190.373 37.698 188.538 38.6991 187.198C39.7592 185.778 41.4083 185.687 43.044 185.778C45.0684 185.89 47.0913 186.114 49.1053 186.343C50.3768 186.488 53.1635 187.405 54.1984 186.623C54.5546 186.354 54.5553 185.649 54.9719 185.406C55.3735 185.171 56.0224 185.34 56.4613 185.372C58.6357 185.533 60.8289 185.729 63.0076 185.793C71.1054 186.03 79.6504 184.768 86.8804 181.006C90.2356 179.26 92.7913 176.512 95.4879 173.916C98.1395 171.364 100.451 168.616 101.164 164.911C101.815 161.528 101.569 157.482 100.487 154.208C99.4333 151.018 95.6929 149.086 92.9707 147.514C89.1955 145.333 85.188 143.525 81.1208 141.959C80.4752 141.711 79.6905 141.394 78.9804 141.522C78.1099 141.677 77.5249 142.432 76.7333 142.765C75.7916 143.161 74.6368 143.162 73.6434 143.394C72.6801 143.618 71.7415 143.926 70.7603 144.074C67.6706 144.54 63.3288 144.168 60.7754 142.194C56.6015 138.969 59.1235 134.403 60.4642 130.478C59.0467 130.43 57.8661 130.761 56.513 130.155C55.1649 129.55 54.1109 128.48 53.4963 127.139C52.3781 124.7 53.0241 121.897 53.3539 119.353C53.503 118.203 53.6733 117.062 54.112 115.982C54.4518 115.145 55.01 114.348 55.216 113.463C55.443 112.489 55.1487 112.432 54.3358 111.966C53.0827 111.248 52.1811 110.421 51.4141 109.161C49.9119 106.691 49.8745 103.995 51.1055 101.397C51.6039 100.345 52.7925 98.8998 52.6572 97.6717C52.541 96.6151 51.3451 95.7924 50.6408 95.1004C48.4665 92.9641 46.1542 90.9917 43.7428 89.1279C42.6157 88.2568 41.3743 87.4663 40.3502 86.4767C39.5997 85.7519 38.8372 84.1749 37.8109 83.7937C36.7836 83.412 36.0995 84.5596 35.3838 85.1744C34.2681 86.1329 33.1992 87.2359 31.9836 88.0668C29.8031 89.5571 27.0996 89.2784 24.6374 88.8023C22.0652 88.3048 19.6796 87.4289 17.4866 85.9837C16.6153 85.4095 15.5976 84.2434 14.5248 84.15C13.3789 84.0504 12.134 85.1895 11.3151 85.8733C9.17707 87.6588 8.53516 90.432 7.28987 92.8306C5.89936 95.5093 5.30875 98.2896 5.68705 101.301C6.02748 104.01 7.07085 106.057 8.62324 108.245C8.94398 108.698 9.69561 109.553 9.14633 110.053C8.47434 110.666 7.09725 109.438 6.64602 109.041C2.16371 105.099 -0.383791 99.1588 1.07121 93.2122C1.85228 90.0194 3.38021 87.0654 5.15444 84.3182C5.90888 83.1497 6.64493 81.9811 7.9571 81.3853C9.45062 80.707 11.143 80.7878 12.7385 80.625C11.635 75.2233 11.2896 69.3456 14.6804 64.6378C17.2825 61.0251 22.6112 57.864 26.8345 60.7936C26.6613 56.8111 26.0937 53.0294 27.1535 49.1085C27.6285 47.3513 28.2791 45.6414 29.0788 44.0061C29.8622 42.4034 30.9441 41.0445 31.5771 39.3761C34.0742 32.7959 38.8653 26.9179 43.9829 22.1953C49.156 17.4214 54.2317 11.5974 60.7477 8.61072C67.546 5.4944 74.4691 2.69403 81.8397 1.27807C89.49 -0.191705 97.3535 -0.493396 105.06 0.898144C111.816 2.11809 118.068 6.21988 123.181 10.642C129.014 15.6879 132.78 21.7712 135.759 28.8178C136.413 30.3656 137.044 31.9268 137.847 33.406C138.737 35.0474 139.881 36.5738 140.536 38.3351C141.12 39.9058 141.218 41.6096 140.178 43.013C139.447 43.9998 137.947 44.2226 137.307 45.1251C136.984 45.5802 137.017 46.0131 137.726 46.1488C138.459 46.2886 138.808 45.4715 139.335 45.1437C140.646 44.3274 142.497 45.0229 143.823 45.4864C146.966 46.5856 149.427 48.5595 151.309 51.2959C153.109 53.9146 154.305 56.8895 155.493 59.8181C156.244 61.6656 156.958 63.501 157.37 65.4584C157.526 66.1949 157.742 68.1911 156.579 67.3163C156.107 66.9616 155.432 69.6529 155.56 70.0814C156.002 71.5719 157.58 72.9693 158.509 74.1759C160.693 77.0127 162.155 80.1907 163.696 83.3988C167.033 90.3466 170.748 97.0914 174.318 103.919C181.588 117.823 189.533 131.192 197.866 144.482C201.995 151.066 206.252 157.538 210.665 163.936C212.613 166.758 214.566 169.583 216.472 172.435C218.091 174.858 219.688 177.556 219.272 180.581C218.89 183.35 217.245 185.574 214.585 186.48C213.159 186.965 211.467 187.525 209.941 187.376C208.272 187.213 206.8 186.097 205.409 185.259C199.018 181.407 192.626 177.559 186.231 173.715C179.079 169.415 172.538 164.31 165.714 159.529C162.242 157.097 158.662 154.905 155.044 152.703C154.23 152.207 150.533 148.655 149.75 149.14Z" fill="black"/>
<path fill-rule="evenodd" clip-rule="evenodd" d="M87.8222 161.38C86.0753 163.952 84.2383 166.37 81.7792 168.321C79.1888 170.377 76.4796 172.043 73.5873 173.638C68.4863 176.451 61.649 178.942 55.7242 177.667C54.0394 177.305 51.3439 175.831 52.8087 173.726C53.5448 172.668 55.1242 172.944 56.2422 173.002C58.0432 173.096 59.6185 173.198 61.3441 172.593C64.5151 171.479 67.7081 170.428 70.8044 169.117C73.8035 167.847 76.4338 166.105 79.1853 164.394C81.7657 162.788 83.7342 160.868 86.0011 158.927C86.622 158.396 87.6894 157.466 88.2766 158.499C88.7011 159.246 88.0549 160.65 87.8222 161.38Z" fill="black"/>
<path fill-rule="evenodd" clip-rule="evenodd" d="M158.413 37.8383C158.218 38.9525 157.69 41.169 156.122 40.8664C154.123 40.4802 155.108 36.5657 155.077 35.2366C154.945 29.4462 153.056 23.8783 150.261 18.8578C148.871 16.3619 147.159 14.0538 145.895 11.4865C145.65 10.9876 144.905 9.75042 145.446 9.20924C146.096 8.55934 147.342 9.54007 147.799 10.0039C149.57 11.7973 150.98 14.486 152.346 16.5964C154.171 19.4139 155.782 22.3896 156.94 25.5488C158.337 29.365 159.122 33.7909 158.413 37.8383Z" fill="black"/>
<path fill-rule="evenodd" clip-rule="evenodd" d="M162.154 19.3212C162.341 20.3253 163.255 23.0575 161.625 23.2998C159.778 23.5745 159.204 19.022 158.691 17.816C158.42 17.1801 156.979 14.3799 157.73 13.7703C159.294 12.5013 161.783 18.5131 162.154 19.3212Z" fill="black"/>
<path fill-rule="evenodd" clip-rule="evenodd" d="M75.1997 154.819C73.4462 156.417 71.4103 156.323 69.1966 156.171C68.0726 156.094 65.4695 155.428 67.2784 154.034C68.2235 153.306 75.6374 152.805 75.1997 154.819Z" fill="black"/>
<path fill-rule="evenodd" clip-rule="evenodd" d="M211.847 184.074C211.972 183.827 213.024 182.636 213.251 183.118C213.465 183.572 212.125 184.061 211.847 184.074Z" fill="black"/>
<path fill-rule="evenodd" clip-rule="evenodd" d="M72.3647 95.7444C72.1489 96.1892 71.2482 95.8009 70.9377 95.8683C71.3594 94.9654 71.8606 95.1588 72.3647 95.7444Z" fill="black"/>
<path fill-rule="evenodd" clip-rule="evenodd" d="M140.144 48.5157C140.05 48.8723 139.957 49.2291 139.863 49.5859C139.719 49.3186 139.575 49.0515 139.431 48.7842C139.668 48.6949 139.906 48.6052 140.144 48.5157Z" fill="black"/>
<path fill-rule="evenodd" clip-rule="evenodd" d="M141.866 115.915C144.117 116.142 146.375 116.257 148.635 116.326C150.542 116.385 151.325 116.024 151.569 114.042C151.858 111.692 151.956 109.32 152.245 106.97C152.376 105.901 153.412 103.767 152.164 103.195C151.118 102.716 149.486 103.402 148.391 103.483C147.171 103.573 145.329 103.201 144.251 103.924C143.097 104.698 143.348 107.406 143.152 108.677C142.777 111.1 142.326 113.507 141.866 115.915ZM140.793 104.501C138.753 104.655 136.706 104.776 134.672 104.994C133.767 105.091 131.934 105.538 131.171 104.88C129.38 103.334 136.075 102.791 136.834 102.669C138.114 102.464 140.304 102.737 141.125 101.528C141.936 100.334 141.731 98.3255 141.941 96.9381C142.257 94.8501 142.618 92.7651 142.829 90.6634C142.899 89.9571 142.798 87.6237 143.544 87.2771C145.259 86.4802 144.72 94.6925 144.692 95.3089C144.643 96.3688 144.59 97.4336 144.443 98.4846C144.359 99.0769 144.067 99.8782 144.247 100.473C144.764 102.18 147.701 101.195 149.038 101.059C150.537 100.907 152.852 101.487 153.349 99.6378C153.972 97.3133 153.881 94.6735 154.113 92.282C154.177 91.6205 154.344 86.6813 155.562 87.0641C156.923 87.4917 156.392 91.6192 156.38 92.6819C156.366 93.8813 156.371 95.0812 156.289 96.2784C156.216 97.3538 155.913 98.6722 156.138 99.7377C156.531 101.606 158.746 100.612 159.389 102.098C160 103.511 156.67 102.404 156.048 102.889C155.119 103.613 155.343 106.641 155.21 107.7C154.919 110.029 154.36 112.446 154.178 114.768C154.035 116.6 155.508 116.357 157.007 116.224C158.292 116.11 159.705 115.805 160.993 115.976C162.029 116.114 163.475 117.068 161.968 117.703C159.611 118.695 154.813 116.667 153.629 119.682C153.406 120.251 152.367 126.846 151.061 123.59C150.515 122.229 151.851 120.094 150.426 119.051C149.932 118.69 149.196 118.754 148.623 118.714C147.211 118.615 145.791 118.582 144.377 118.552C142.966 118.523 141.699 118.239 141.154 119.784C140.73 120.988 140.777 122.334 140.438 123.566C140.184 124.489 139.349 126.105 138.483 124.595C137.915 123.603 138.35 121.869 138.462 120.791C138.518 120.25 138.84 119.133 138.431 118.679C137.991 118.192 136.813 118.456 136.257 118.5C134.651 118.627 131.659 119.4 130.43 117.943C129.401 116.724 131.539 116.701 132.38 116.619C133.246 116.534 134.113 116.455 134.978 116.364C135.931 116.264 137.193 116.398 138.089 116.099C139.595 115.598 139.488 113.55 139.587 112.222C139.78 109.627 140.364 107.065 140.793 104.501Z" fill="black"/>
<path fill-rule="evenodd" clip-rule="evenodd" d="M167.256 110.042C167.134 111.54 166.972 113.219 166.488 114.643C166.122 115.719 165.383 116.046 165.131 114.676C164.972 113.807 166.033 108.914 167.256 110.042Z" fill="black"/>
<path fill-rule="evenodd" clip-rule="evenodd" d="M72.1603 100.179C71.5596 99.7474 68.7148 97.4789 70.771 97.3892C71.821 97.3433 74.0829 99.0704 74.1478 100.028C74.1643 100.27 73.6469 100.395 73.6752 100.629C73.7287 101.075 74.3883 101.286 74.6007 101.64C75.0694 102.422 74.8749 103.965 74.2698 104.708C72.8898 106.401 71.3576 103.534 72.4258 102.972C72.1879 103.097 68.9937 101.473 68.8737 101.106C68.2168 99.0972 71.999 100.99 72.1603 100.179Z" fill="black"/>
<path fill-rule="evenodd" clip-rule="evenodd" d="M77.1749 108.086C76.4452 108.109 74.9797 108.058 74.4333 107.537C73.4172 106.569 75.3989 106.44 75.9787 105.989C76.7914 105.357 76.9508 103.302 78.2265 104.574C79.4917 105.835 78.3789 107.303 77.1749 108.086Z" fill="black"/>
<path fill-rule="evenodd" clip-rule="evenodd" d="M66.6567 102.749C67.9759 102.555 70.9109 105.399 69.4865 105.588C68.544 105.713 66.8625 103.509 66.6567 102.749Z" fill="black"/>
</svg>
